HIERARCHY
ROOT Hips
{
	OFFSET -0.001795 -0.223333 0.028219
	CHANNELS 6 Xposition Yposition Zposition Zrotation Yrotation Xrotation 
	JOINT LeftUpLeg
	{
		OFFSET 0.069520 -0.091406 -0.006815
		CHANNELS 3 Zrotation Yrotation Xrotation
		JOINT LeftLeg
		{
			OFFSET 0.034277 -0.375199 -0.004496
			CHANNELS 3 Zrotation Yrotation Xrotation
			JOINT LeftFoot
			{
				OFFSET -0.013596 -0.397961 -0.043693
				CHANNELS 3 Zrotation Yrotation Xrotation
				JOINT LeftToe
				{
					OFFSET 0.026358 -0.055791 0.119288
					CHANNELS 3 Zrotation Yrotation Xrotation
					End Site
					{
						OFFSET 0.000000 0.000000 0.000000
					}
				}
			}
		}
	}
	JOINT RightUpLeg
	{
		OFFSET -0.067670 -0.090522 -0.004320
		CHANNELS 3 Zrotation Yrotation Xrotation
		JOINT RightLeg
		{
			OFFSET -0.038290 -0.382569 -0.008850
			CHANNELS 3 Zrotation Yrotation Xrotation
			JOINT RightFoot
			{
				OFFSET 0.015774 -0.398415 -0.042312
				CHANNELS 3 Zrotation Yrotation Xrotation
				JOINT RightToe
				{
					OFFSET -0.025372 -0.048144 0.123348
					CHANNELS 3 Zrotation Yrotation Xrotation
					End Site
					{
						OFFSET 0.000000 0.000000 0.000000
					}
				}
			}
		}
	}
	JOINT Spine
	{
		OFFSET -0.002533 0.108963 -0.026696
		CHANNELS 3 Zrotation Yrotation Xrotation
		JOINT Spine1
		{
			OFFSET 0.005487 0.135180 0.001092
			CHANNELS 3 Zrotation Yrotation Xrotation
			JOINT Spine2
			{
				OFFSET 0.001457 0.052922 0.025425
				CHANNELS 3 Zrotation Yrotation Xrotation
				JOINT Neck
				{
					OFFSET -0.002778 0.213870 -0.042857
					CHANNELS 3 Zrotation Yrotation Xrotation
					JOINT Head
					{
						OFFSET 0.005152 0.064970 0.051349
						CHANNELS 3 Zrotation Yrotation Xrotation
						End Site
						{
							OFFSET 0.000000 0.000000 0.000000
						}
					}
				}
				JOINT LeftShoulder
				{
					OFFSET 0.078845 0.121749 -0.034090
					CHANNELS 3 Zrotation Yrotation Xrotation
					JOINT LeftArm
					{
						OFFSET 0.090977 0.030469 -0.008868
						CHANNELS 3 Zrotation Yrotation Xrotation
						JOINT LeftForeArm
						{
							OFFSET 0.259612 -0.012772 -0.027456
							CHANNELS 3 Zrotation Yrotation Xrotation
							JOINT LeftHand
							{
								OFFSET 0.249234 0.008986 -0.001171
								CHANNELS 3 Zrotation Yrotation Xrotation
								End Site
								{
									OFFSET 0.000000 0.000000 0.000000
								}
							}
						}
					}
				}
				JOINT RightShoulder
				{
					OFFSET -0.081759 0.118833 -0.038615
					CHANNELS 3 Zrotation Yrotation Xrotation
					JOINT RightArm
					{
						OFFSET -0.096012 0.032551 -0.009143
						CHANNELS 3 Zrotation Yrotation Xrotation
						JOINT RightForeArm
						{
							OFFSET -0.253742 -0.013329 -0.021401
							CHANNELS 3 Zrotation Yrotation Xrotation
							JOINT RightHand
							{
								OFFSET -0.255298 0.007772 -0.005559
								CHANNELS 3 Zrotation Yrotation Xrotation
								End Site
								{
									OFFSET 0.000000 0.000000 0.000000
								}
							}
						}
					}
				}
			}
		}
	}
}
MOTION
Frames: 8
Frame Time: 0.050000
0.000000 0.998547 0.000000 -2.587992 17.968656 12.212826 7.395969 -1.617347 -20.637396 -7.639149 0.531130 12.303670 9.175440 21.139726 17.257863 0.000000 0.000000 0.000000 -5.178755 -0.075711 -35.344065 4.397923 -1.888817 24.729585 -6.772902 -15.144150 21.158883 0.000000 0.000000 0.000000 -3.911215 -0.794899 21.227443 5.480095 -0.389992 -23.508860 1.186376 -10.006021 29.913886 -2.793193 3.151749 -29.814621 0.000000 0.000000 0.000000 -14.079668 14.483140 -8.290348 -31.676631 5.917724 -6.445886 -4.824226 -50.687587 4.367772 0.000000 0.000000 0.000000 7.511505 -10.912876 -5.244666 49.035392 -8.932129 -10.220791 18.145398 51.138312 11.653898 0.000000 0.000000 0.000000 
0.000194 0.994170 -0.020655 -4.081004 17.613675 13.840939 10.093772 -1.770404 -25.714196 -8.512956 0.683077 14.908452 10.608679 23.078568 14.835084 0.000000 0.000000 0.000000 -4.841146 -0.239902 -39.688640 9.490571 -4.335272 28.670439 -9.769001 -19.721645 24.196050 0.000000 0.000000 0.000000 -3.685296 -0.945586 22.611764 7.979754 -0.796165 -26.540101 0.194013 -7.254712 32.981786 3.096002 0.543633 -30.869518 0.000000 0.000000 0.000000 -16.492882 16.520304 -10.578475 -33.406940 4.622242 -6.572253 -12.391719 -50.874100 7.699735 0.000000 0.000000 0.000000 14.489490 -9.653415 -5.079112 45.782108 -7.632795 -9.498029 16.364456 55.314529 12.601653 0.000000 0.000000 0.000000 
-0.001419 0.978888 -0.041155 -3.059168 17.744642 14.517158 9.585281 -2.082962 -28.533993 -9.437883 0.849768 17.093018 10.379724 22.707566 11.936270 0.000000 0.000000 0.000000 -5.213369 -0.563401 -42.411586 9.950972 -5.161615 33.017396 -8.883135 -18.873890 20.253096 0.000000 0.000000 0.000000 -3.872090 -0.988869 23.672981 8.757671 -1.350316 -21.296256 -1.399288 -5.838073 28.167223 2.138622 1.195435 -29.946328 0.000000 0.000000 0.000000 -14.470231 13.357700 -8.503532 -37.575607 11.387842 -8.906632 -14.793701 -56.308718 9.626001 0.000000 0.000000 0.000000 14.943033 -7.196550 -3.746989 49.738128 -7.055997 -9.571355 13.383197 56.956993 11.517402 0.000000 0.000000 0.000000 
-0.004239 0.962389 -0.062049 -2.796204 19.324718 15.376369 10.231956 -2.713597 -34.151823 -11.865941 1.296164 22.955118 11.507434 24.716225 11.190378 0.000000 0.000000 0.000000 -5.550590 -1.399648 -45.996310 10.381184 -6.072893 36.357595 -7.309454 -16.355095 22.258326 0.000000 0.000000 0.000000 -3.882126 -1.336881 26.191344 8.602404 -1.111819 -23.159372 -0.368098 -5.301911 29.511317 1.847268 1.667649 -32.002404 0.000000 0.000000 0.000000 -18.697997 10.958099 -8.646136 -38.142570 11.526832 -9.095781 -16.724810 -57.586745 10.763704 0.000000 0.000000 0.000000 15.877593 -4.626684 -2.059678 52.168657 -5.637094 -9.691575 10.506642 58.497583 10.840734 0.000000 0.000000 0.000000 
-0.008024 0.947476 -0.082584 -2.175513 19.809560 16.789002 11.634216 -3.086711 -39.230257 -14.484854 2.060206 26.862924 12.397112 26.458404 11.489557 0.000000 0.000000 0.000000 -4.507256 -1.304894 -48.052240 9.114656 -5.529067 37.095906 -8.294238 -17.795464 20.801522 0.000000 0.000000 0.000000 -4.458941 -1.493388 28.780188 8.525207 -1.059109 -23.349739 0.216181 -4.516599 29.318687 1.478630 2.083233 -33.735346 0.000000 0.000000 0.000000 -19.688901 10.007925 -8.650496 -40.851806 11.504470 -9.729600 -18.701670 -57.951739 11.882359 0.000000 0.000000 0.000000 16.517013 -2.123411 -0.486690 54.997272 -3.202705 -9.106218 8.487633 59.038530 10.156293 0.000000 0.000000 0.000000 
-0.012041 0.935659 -0.102442 -2.024790 19.997473 17.278099 12.941362 -3.190432 -42.721594 -16.192171 2.735779 30.104541 12.099962 26.236629 11.177673 0.000000 0.000000 0.000000 -3.487247 -1.165000 -50.648739 7.893293 -5.050704 38.745554 -8.527297 -18.311438 18.786654 0.000000 0.000000 0.000000 -4.548901 -1.803848 31.462408 8.875014 -1.027154 -24.444514 0.456087 -3.364240 29.781569 1.188119 2.426816 -35.135704 0.000000 0.000000 0.000000 -22.400592 7.865018 -8.453836 -41.863907 10.197204 -9.485157 -20.789334 -56.650159 12.658797 0.000000 0.000000 0.000000 17.494150 -0.180804 0.903397 55.897248 0.024332 -7.965888 7.419591 58.935826 9.905967 0.000000 0.000000 0.000000 
-0.015141 0.925456 -0.121709 -1.952646 19.420580 17.886171 14.348973 -2.996056 -45.582588 -18.601079 3.858482 32.799149 13.243662 28.048227 11.064410 0.000000 0.000000 0.000000 -2.831790 -0.947829 -53.168925 6.937709 -4.453222 39.682008 -9.281034 -19.713124 17.606017 0.000000 0.000000 0.000000 -4.981738 -1.895327 33.830253 8.562925 -0.988223 -23.972739 0.983749 -2.544314 29.151036 1.129728 2.469572 -35.027062 0.000000 0.000000 0.000000 -24.380651 5.698032 -7.769482 -43.590803 8.634886 -9.278653 -19.685501 -55.835216 11.960008 0.000000 0.000000 0.000000 18.498080 2.335711 2.426924 56.350914 2.343119 -6.951466 3.757642 60.291372 8.084689 0.000000 0.000000 0.000000 
-0.017028 0.917566 -0.140362 -2.121526 18.416582 18.326884 15.578730 -2.594407 -47.601539 -20.388024 4.844491 34.015554 14.053678 29.267799 11.191061 0.000000 0.000000 0.000000 -2.488004 -0.691196 -55.473641 6.942526 -4.364672 41.000205 -9.234540 -19.904812 16.820261 0.000000 0.000000 0.000000 -5.058587 -2.069667 36.332403 8.827210 -0.938232 -25.383933 1.080735 -1.705859 29.499999 1.696560 2.235262 -35.537169 0.000000 0.000000 0.000000 -25.660715 3.504786 -6.717880 -44.240090 6.659879 -8.749223 -18.955430 -54.477469 11.359515 0.000000 0.000000 0.000000 18.311974 4.228374 3.528628 56.601719 5.023065 -5.779891 1.866623 62.104927 7.387011 0.000000 0.000000 0.000000 
